<?xml version="1.0" encoding="utf-8"?>
<!-- Generator: Adobe Illustrator 26.0.1, SVG Export Plug-In . SVG Version: 6.00 Build 0)  -->
<svg version="1.1" id="Layer_1" xmlns="http://www.w3.org/2000/svg" xmlns:xlink="http://www.w3.org/1999/xlink" x="0px" y="0px"
	 viewBox="0 0 16 16" style="enable-background:new 0 0 16 16;" xml:space="preserve">
<style type="text/css">
	.st0{fill-rule:evenodd;clip-rule:evenodd;fill:#28B679;}
	.st1{fill:#FFFFFF;}
</style>
<g>
	<path class="st0" d="M8,0c4.4,0,8,3.6,8,8s-3.6,8-8,8s-8-3.6-8-8S3.6,0,8,0"/>
	<path class="st1" d="M10.5,5.2c0,0.5-0.1,0.9-0.2,1.3c1.2-0.2,1.2-1.2,0.4-1.4C10.5,5.1,10.5,5.1,10.5,5.2 M5.5,10.3
		c0-0.5,0.1-0.9,0.3-1.3c-1.1,0.2-1.2,1.2-0.4,1.4C5.5,10.5,5.5,10.5,5.5,10.3z M8.5,7.6c1.2-0.5,1.9-1.2,1.7-2.6
		C8.6,4.9,7.2,4.9,5.7,5.1c0,1.4,0.6,2.1,1.8,2.5c0.1,0,0.2,0.2,0,0.2c-1.2,0.5-1.8,1.2-1.8,2.5c0,0,0,0,0,0c0,0.1,0,0.1,0.1,0.1
		c0,0,0,0,0,0c1.5,0.1,2.9,0.1,4.3,0c0,0,0,0,0,0c0.1,0,0.1,0,0.1-0.1c0,0,0,0,0,0c0-1.3-0.6-2-1.8-2.4C8.3,7.8,8.3,7.7,8.5,7.6z
		 M9.8,5.9c-1.3,0-2.6,0-3.8,0.1c-0.1,0-0.1,0-0.1,0.1c0.2,0.7,0.8,1.3,1.9,1.6c0,0,0.1,0,0.1,0.1l0,2.1c0,0,0,0,0,0.1L6,9.8
		c-0.1,0-0.1,0-0.1,0c0,0.2,0,0.3,0,0.4c0,0.1,0,0.1,0.1,0.1c1.5,0.1,2.8,0.1,4.1,0c0.1,0,0.1,0,0.1-0.1c0-0.2,0-0.3,0-0.4
		c0-0.1,0-0.1-0.1-0.1l-1.9,0c0,0,0,0,0-0.1l0-2.1c0,0,0-0.1,0-0.1C9.4,7.3,9.8,6.6,10,5.9C10,5.9,9.9,5.9,9.8,5.9z M8.3,0.7
		c-1.2,0.6,2.5,2.5-0.4,3.6C9.8,3.1,6.1,1.3,8.3,0.7L8.3,0.7z M7.3,4.2L7.3,4.2c1.3-0.8-0.7-1.8,0.1-2.6C7.3,2.3,9.1,3.5,7.3,4.2z
		 M7.1,7.7C5.9,7.2,5.3,6.3,5.4,5l0-0.1C7,4.7,8.6,4.8,10.3,4.8c1.4,0.1,1.6,1.4,0.2,1.9c-0.3,0.1-0.5,0.1-0.7,0.4
		c-0.3,0.3-0.6,0.5-1,0.7c1.2,0.5,1.8,1.4,1.7,2.8l0,0.1c-0.8,0.2-4,0.3-5.3,0c-1-0.3-1.1-1.4,0.1-1.8c0.3-0.1,0.5-0.1,0.7-0.4
		C6.4,8.2,6.7,7.9,7.1,7.7z"/>
	<path class="st1" d="M8.8,2.1c1.3,0.2,2.5,0.8,3.4,1.6c1.1,1.1,1.8,2.5,1.8,4.2c0,1.6-0.6,3.1-1.7,4.2s-2.5,1.8-4.2,1.8
		c-1.6,0-3.1-0.6-4.2-1.7S2.1,9.7,2.1,8c0-1.6,0.6-3.1,1.7-4.2C4.6,3,5.7,2.4,6.9,2.1c0,0,0,0,0.1,0c0,0.2,0.1,0.4,0.2,0.6
		C6,2.9,5,3.4,4.2,4.2c-1,1-1.5,2.3-1.5,3.8c0,1.5,0.6,2.8,1.6,3.8s2.3,1.5,3.8,1.5c1.5,0,2.8-0.6,3.8-1.6s1.5-2.3,1.5-3.8
		c0-1.5-0.6-2.8-1.6-3.8C11,3.5,10.1,3,9.2,2.8l0,0C9.1,2.5,9,2.3,8.8,2.1"/>
</g>
</svg>
